<?xml version="1.0" standalone="no"?>
<!DOCTYPE svg PUBLIC "-//W3C//DTD SVG 20010904//EN"
 "http://www.w3.org/TR/2001/REC-SVG-20010904/DTD/svg10.dtd">
<svg version="1.0" xmlns="http://www.w3.org/2000/svg"
 width="1031.000000pt" height="304.000000pt" viewBox="0 0 1031.000000 304.000000"
 preserveAspectRatio="xMidYMid meet">

<g transform="translate(0.000000,304.000000) scale(0.100000,-0.100000)"
fill="#000000" stroke="none">
<path d="M1127 2738 c-14 -40 -66 -192 -117 -338 -51 -146 -114 -328 -140
-405 -27 -77 -82 -237 -123 -355 -273 -788 -497 -1437 -497 -1443 0 -4 184 -7
409 -7 315 0 411 3 419 13 15 18 411 1211 578 1737 14 47 29 88 33 92 3 4 53
-129 109 -295 195 -568 312 -914 312 -921 0 -3 -90 -6 -200 -6 l-200 0 0 -310
0 -310 745 0 c410 0 745 2 745 5 0 5 -599 1653 -692 1905 -27 74 -94 257 -148
405 -54 149 -101 278 -105 288 -7 16 -43 17 -555 17 l-548 0 -25 -72z"/>
<path d="M3728 2388 c-2 -233 -2 -822 0 -1311 l3 -887 452 2 452 3 3 397 2
398 51 0 c27 0 83 7 123 15 355 73 642 361 716 718 13 65 19 256 8 260 -5 1
-9 22 -9 47 -6 183 -158 447 -339 588 -87 68 -213 132 -311 158 l-104 28 -522
4 -523 3 -2 -423z"/>
<path d="M8565 2766 c-71 -18 -177 -52 -235 -76 -118 -49 -319 -178 -389 -250
-140 -143 -236 -277 -275 -385 -14 -38 -29 -71 -33 -74 -18 -12 -55 -121 -63
-183 -29 -219 -34 -298 -22 -405 55 -521 392 -943 885 -1108 701 -235 1461
190 1646 921 74 291 38 592 -105 878 -74 147 -100 182 -233 319 -192 197 -366
295 -649 367 -107 26 -137 30 -259 29 -122 0 -153 -4 -268 -33z"/>
<path d="M6060 2392 c0 -231 -4 -411 -10 -432 -6 -22 -6 -36 0 -40 6 -4 11
-317 12 -866 l3 -859 450 0 450 0 3 1298 2 1297 -455 0 -455 0 0 -398z"/>
</g>
</svg>
