<svg id="Capa_1" enable-background="new 0 0 512 512" height="512" viewBox="0 0 512 512" width="512" xmlns="http://www.w3.org/2000/svg"><g><path d="m433.38 341.807c43.352 0 78.62-35.269 78.62-78.62 0-32.725-20.599-62.096-50.822-73.544.639-6.038.962-12.088.962-18.056 0-93.854-76.36-170.21-170.22-170.21-36.929 0-72.059 11.63-101.589 33.632-27.17 20.243-47.349 47.479-58.661 79.075-5.663-.855-11.413-1.287-17.17-1.287-20.573 0-40.756 5.526-58.369 15.981-3.562 2.114-4.735 6.716-2.621 10.278 2.115 3.562 6.717 4.736 10.278 2.621 15.296-9.08 32.832-13.879 50.711-13.879 6.963 0 13.912.726 20.652 2.156 3.778.801 7.548-1.397 8.71-5.081 9.711-30.797 29.396-58.439 55.43-77.835 26.922-20.058 58.952-30.66 92.627-30.66 85.589 0 155.22 69.627 155.22 155.21 0 7.319-.533 14.779-1.585 22.174-.526 3.707 1.761 7.234 5.36 8.266 27.134 7.774 46.085 32.924 46.085 61.16 0 35.08-28.54 63.62-63.62 63.62h-318.878c-54.864 0-99.5-44.64-99.5-99.51 0-25.449 9.603-49.658 27.039-68.167 2.84-3.015 2.699-7.761-.316-10.602-3.015-2.84-7.762-2.699-10.602.316-20.069 21.303-31.121 49.165-31.121 78.452 0 63.141 51.364 114.51 114.5 114.51h31.408v9.755c0 3.628-2.952 6.58-6.58 6.58h-1.69c-28.441 0-51.58 23.143-51.58 51.59v12.569c-14.606 7.99-24.535 23.501-24.535 41.29 0 25.933 21.098 47.031 47.031 47.031s47.031-21.098 47.031-47.031c0-17.786-9.926-33.295-24.527-41.286v-12.574c0-3.634 2.952-6.59 6.58-6.59h1.69c28.441 0 51.58-23.139 51.58-51.58v-9.755h42.59v80.498c-14.602 7.99-24.529 23.5-24.529 41.287 0 25.933 21.098 47.031 47.031 47.031 25.934 0 47.031-21.098 47.031-47.031 0-17.788-9.928-33.3-24.533-41.289v-80.495h42.59v9.755c0 28.441 23.144 51.58 51.59 51.58h1.681c3.634 0 6.59 2.956 6.59 6.59v12.57c-14.605 7.99-24.533 23.501-24.533 41.289 0 25.933 21.098 47.031 47.031 47.031s47.03-21.098 47.03-47.031c0-17.786-9.925-33.295-24.526-41.286v-12.569c0-6.354-1.145-12.546-3.401-18.406-1.488-3.864-5.825-5.794-9.695-4.303-3.865 1.489-5.791 5.829-4.303 9.694 1.592 4.133 2.399 8.512 2.399 13.015v7.43c-2.445-.394-4.95-.606-7.504-.606-2.552 0-5.055.212-7.498.605v-7.433c0-11.905-9.686-21.59-21.59-21.59h-1.681c-20.176 0-36.59-16.41-36.59-36.58v-9.755h15.002v9.76c0 11.899 9.686 21.58 21.59 21.58h1.681c6.944 0 13.706 1.967 19.554 5.688 1.248.794 2.642 1.173 4.02 1.173 2.479 0 4.905-1.228 6.334-3.475 2.225-3.495 1.193-8.13-2.301-10.354-8.258-5.255-17.805-8.032-27.606-8.032h-1.681c-3.634 0-6.59-2.952-6.59-6.58v-9.76zm2.097 121.785c0 17.662-14.369 32.031-32.03 32.031-17.662 0-32.031-14.369-32.031-32.031s14.369-32.031 32.031-32.031c17.66 0 32.03 14.369 32.03 32.031zm-294.892 0c0 17.662-14.369 32.031-32.031 32.031s-32.031-14.369-32.031-32.031 14.369-32.031 32.031-32.031 32.031 14.369 32.031 32.031zm35.323-112.029c0 20.17-16.41 36.58-36.58 36.58h-1.69c-11.899 0-21.58 9.685-21.58 21.59v7.434c-2.445-.394-4.95-.606-7.504-.606-2.552 0-5.054.211-7.496.604v-7.433c0-20.176 16.41-36.59 36.58-36.59h1.69c11.899 0 21.58-9.681 21.58-21.58v-9.755h15zm112.123 112.029c0 17.662-14.369 32.031-32.031 32.031s-32.031-14.369-32.031-32.031 14.369-32.031 32.031-32.031 32.031 14.369 32.031 32.031zm-24.533-46.426c-2.443-.393-4.946-.605-7.498-.605-2.553 0-5.058.212-7.502.605v-75.359h15z"/></g></svg>